<svg width="32" height="32" viewBox="0 0 32 32" fill="none" xmlns="http://www.w3.org/2000/svg">
<path d="M30.7667 17.3962C30.7667 17.3962 32.537 14.3012 31.8321 12.0527C31.8043 11.9575 31.771 11.867 31.74 11.7772C31.7091 11.6875 31.6766 11.6055 31.6418 11.5211C30.8231 9.53105 28.8903 8.22263 26.7432 8.08026L24.0977 7.90462L23.9213 5.25453C23.7789 3.10737 22.4705 1.17453 20.4804 0.355906C20.3961 0.321087 20.311 0.288591 20.2251 0.25764C20.1392 0.22669 20.044 0.194193 19.9488 0.165564C17.698 -0.538549 14.6061 1.23102 14.6061 1.23102L0 8.87336C0.638848 10.0705 1.70663 10.9818 2.98923 11.4246C4.27184 11.8675 5.67444 11.8091 6.91579 11.2612C6.96144 11.3648 7.01018 11.467 7.06435 11.5707C7.70812 12.8009 8.80278 13.7344 10.1192 14.1759C11.4357 14.6173 12.8718 14.5325 14.1271 13.9391C14.2504 14.9389 14.7068 15.8681 15.4227 16.5768C16.1386 17.2855 17.0723 17.7325 18.0733 17.8458C17.471 19.1025 17.38 20.5438 17.8193 21.8663C18.2587 23.1888 19.1941 24.2891 20.4286 24.9357C20.5307 24.989 20.6328 25.0378 20.7381 25.0834C20.1903 26.3249 20.132 27.7276 20.5748 29.0103C21.0176 30.2929 21.9288 31.3609 23.1259 32L30.7667 17.3962Z" fill="#3E00B5"/>
</svg>
